{
    "asset" : {
        "generator" : "Khronos glTF Blender I/O v3.3.32",
        "version" : "2.0"
    },
    "scene" : 0,
    "scenes" : [
        {
            "name" : "Scene",
            "nodes" : [
                4
            ]
        }
    ],
    "nodes" : [
        {
            "mesh" : 0,
            "name" : "Extrude.001"
        },
        {
            "children" : [
                0
            ],
            "name" : "Extrude"
        },
        {
            "mesh" : 1,
            "name" : "Extrude.002"
        },
        {
            "children" : [
                2
            ],
            "name" : "Extrude.1"
        },
        {
            "children" : [
                1,
                3
            ],
            "name" : "logo"
        }
    ],
    "materials" : [
        {
            "name" : "right",
            "pbrMetallicRoughness" : {
                "baseColorFactor" : [
                    0.05285996198654175,
                    0.11953802406787872,
                    1,
                    1
                ],
                "metallicFactor" : 0.5,
                "roughnessFactor" : 0.5
            }
        },
        {
            "name" : "left",
            "pbrMetallicRoughness" : {
                "baseColorFactor" : [
                    0.007498962804675102,
                    0.010329779237508774,
                    0.09989871084690094,
                    1
                ],
                "metallicFactor" : 0.5,
                "roughnessFactor" : 0.5
            }
        }
    ],
    "meshes" : [
        {
            "name" : "Extrude",
            "primitives" : [
                {
                    "attributes" : {
                        "POSITION" : 0,
                        "NORMAL" : 1,
                        "TEXCOORD_0" : 2
                    },
                    "indices" : 3,
                    "material" : 0
                }
            ]
        },
        {
            "name" : "Extrude.1",
            "primitives" : [
                {
                    "attributes" : {
                        "POSITION" : 4,
                        "NORMAL" : 5,
                        "TEXCOORD_0" : 6
                    },
                    "indices" : 7,
                    "material" : 1
                }
            ]
        }
    ],
    "accessors" : [
        {
            "bufferView" : 0,
            "componentType" : 5126,
            "count" : 2976,
            "max" : [
                3.0041751861572266,
                2.1714351177215576,
                0.5268492698669434
            ],
            "min" : [
                -0.0592011995613575,
                -2.4234249591827393,
                -0.5331507921218872
            ],
            "type" : "VEC3"
        },
        {
            "bufferView" : 1,
            "componentType" : 5126,
            "count" : 2976,
            "type" : "VEC3"
        },
        {
            "bufferView" : 2,
            "componentType" : 5126,
            "count" : 2976,
            "type" : "VEC2"
        },
        {
            "bufferView" : 3,
            "componentType" : 5123,
            "count" : 12528,
            "type" : "SCALAR"
        },
        {
            "bufferView" : 4,
            "componentType" : 5126,
            "count" : 3989,
            "max" : [
                0.4746186137199402,
                2.1714351177215576,
                0.5268492698669434
            ],
            "min" : [
                -3.1682512760162354,
                -2.4234249591827393,
                -0.5331507325172424
            ],
            "type" : "VEC3"
        },
        {
            "bufferView" : 5,
            "componentType" : 5126,
            "count" : 3989,
            "type" : "VEC3"
        },
        {
            "bufferView" : 6,
            "componentType" : 5126,
            "count" : 3989,
            "type" : "VEC2"
        },
        {
            "bufferView" : 7,
            "componentType" : 5123,
            "count" : 16860,
            "type" : "SCALAR"
        }
    ],
    "bufferViews" : [
        {
            "buffer" : 0,
            "byteLength" : 35712,
            "byteOffset" : 0,
            "target" : 34962
        },
        {
            "buffer" : 0,
            "byteLength" : 35712,
            "byteOffset" : 35712,
            "target" : 34962
        },
        {
            "buffer" : 0,
            "byteLength" : 23808,
            "byteOffset" : 71424,
            "target" : 34962
        },
        {
            "buffer" : 0,
            "byteLength" : 25056,
            "byteOffset" : 95232,
            "target" : 34963
        },
        {
            "buffer" : 0,
            "byteLength" : 47868,
            "byteOffset" : 120288,
            "target" : 34962
        },
        {
            "buffer" : 0,
            "byteLength" : 47868,
            "byteOffset" : 168156,
            "target" : 34962
        },
        {
            "buffer" : 0,
            "byteLength" : 31912,
            "byteOffset" : 216024,
            "target" : 34962
        },
        {
            "buffer" : 0,
            "byteLength" : 33720,
            "byteOffset" : 247936,
            "target" : 34963
        }
    ],
    "buffers" : [
        {
            "byteLength" : 281656,
            "uri" : "data:application/octet-stream;base64,"
        }
    ]
}
