{
  "asset": {
    "version": "2.0",
    "generator": "Created using the official Cinema 4D glTF Exporter 1.000x284978"
  },
  "scenes": [
    {
      "nodes": [0]
    }
  ],
  "nodes": [
    {
      "name": "Null",
      "translation": [
        -0.5078705549240112, 2.411210060119629, 0.5031507611274719
      ],
      "rotation": [0.0, 0.0, 0.0, -1.0],
      "scale": [1.0, 1.0, 1.0],
      "children": [1, 2]
    },
    {
      "name": "Extrude",
      "children": [3]
    },
    {
      "name": "Extrude.1",
      "children": [4]
    },
    {
      "name": "Extrude",
      "mesh": 0
    },
    {
      "name": "Extrude.1",
      "mesh": 1
    }
  ],
  "meshes": [
    {
      "name": "Extrude",
      "primitives": [
        {
          "attributes": {
            "POSITION": 1,
            "NORMAL": 2,
            "TEXCOORD_0": 3
          },
          "indices": 0,
          "material": 0
        }
      ]
    },
    {
      "name": "Extrude.1",
      "primitives": [
        {
          "attributes": {
            "POSITION": 5,
            "NORMAL": 6,
            "TEXCOORD_0": 7
          },
          "indices": 4,
          "material": 1
        }
      ]
    }
  ],
  "accessors": [
    {
      "bufferView": 0,
      "type": "SCALAR",
      "min": [0],
      "componentType": 5123,
      "count": 12528,
      "byteOffset": 0,
      "max": [2636]
    },
    {
      "bufferView": 1,
      "type": "VEC3",
      "min": [-0.0592011995613575, -2.4234249591827394, -0.5331507921218872],
      "componentType": 5126,
      "count": 2637,
      "byteOffset": 0,
      "max": [3.0041751861572267, 2.1714351177215578, 0.5268492698669434]
    },
    {
      "bufferView": 1,
      "type": "VEC3",
      "min": [-1.0, -1.0, -1.0],
      "componentType": 5126,
      "count": 2637,
      "byteOffset": 12,
      "max": [1.0, 1.0, 1.0]
    },
    {
      "bufferView": 1,
      "type": "VEC2",
      "min": [0.0, 0.0],
      "componentType": 5126,
      "count": 2637,
      "byteOffset": 24,
      "max": [1.0, 1.0]
    },
    {
      "bufferView": 2,
      "type": "SCALAR",
      "min": [0],
      "componentType": 5123,
      "count": 16860,
      "byteOffset": 0,
      "max": [3556]
    },
    {
      "bufferView": 3,
      "type": "VEC3",
      "min": [-3.1682512760162355, -2.4234249591827394, -0.5331507325172424],
      "componentType": 5126,
      "count": 3557,
      "byteOffset": 0,
      "max": [0.4746186137199402, 2.1714351177215578, 0.5268492698669434]
    },
    {
      "bufferView": 3,
      "type": "VEC3",
      "min": [-1.0, -1.0, -1.0],
      "componentType": 5126,
      "count": 3557,
      "byteOffset": 12,
      "max": [1.0, 1.0, 1.0]
    },
    {
      "bufferView": 3,
      "type": "VEC2",
      "min": [0.0, 0.0],
      "componentType": 5126,
      "count": 3557,
      "byteOffset": 24,
      "max": [1.0, 1.0]
    }
  ],
  "bufferViews": [
    {
      "buffer": 0,
      "byteOffset": 0,
      "byteLength": 25056,
      "target": 34963
    },
    {
      "buffer": 0,
      "byteOffset": 25056,
      "byteLength": 84384,
      "target": 34962,
      "byteStride": 32
    },
    {
      "buffer": 1,
      "byteOffset": 0,
      "byteLength": 33720,
      "target": 34963
    },
    {
      "buffer": 1,
      "byteOffset": 33720,
      "byteLength": 113824,
      "target": 34962,
      "byteStride": 32
    }
  ],
  "buffers": [
    {
      "uri": "data:application/octet-stream;base64,",
      "byteLength": 109440
    },
    {
      "uri": "data:application/octet-stream;base64,",
      "byteLength": 147544
    }
  ],
  "materials": [
    {
      "pbrMetallicRoughness": {
        "baseColorFactor": [0.2549019607843137, 0.3803921568627452, 1.0, 1.0],
        "metallicFactor": 0.5,
        "roughnessFactor": 0.5
      },
      "emissiveFactor": [0.0, 0.0, 0.0],
      "alphaMode": "OPAQUE",
      "doubleSided": false,
      "name": "right"
    },
    {
      "pbrMetallicRoughness": {
        "baseColorFactor": [
          0.08235294117647059, 0.10196078431372542, 0.34901960784313726, 1.0
        ],
        "metallicFactor": 0.5,
        "roughnessFactor": 0.5
      },
      "emissiveFactor": [0.0, 0.0, 0.0],
      "alphaMode": "OPAQUE",
      "doubleSided": false,
      "name": "left"
    }
  ]
}
